<svg width="21" height="20" viewBox="0 0 21 20" fill="none" xmlns="http://www.w3.org/2000/svg">
<g clip-path="url(#clip0_2108_892)">
<path d="M10.5 12.4937C9.1193 12.4937 8 13.6129 8 14.9937V19.9937H13V14.9937C13 13.6129 11.8807 12.4937 10.5 12.4937Z" fill="#FF9F21"/>
<path d="M14.6667 14.9939V19.9939H18C19.3807 19.9939 20.5 18.8746 20.5 17.4939V9.89307C20.5002 9.46014 20.332 9.04413 20.0308 8.73307L12.9492 1.07721C11.6996 -0.274738 9.59074 -0.357746 8.23879 0.891785C8.17457 0.95116 8.1127 1.013 8.05336 1.07721L0.98418 8.73057C0.673945 9.04292 0.499883 9.46534 0.5 9.90557V17.4939C0.5 18.8746 1.6193 19.9939 3 19.9939H6.33332V14.9939C6.34891 12.7216 8.18355 10.8659 10.3987 10.8125C12.6879 10.7573 14.6492 12.6445 14.6667 14.9939Z" fill="#FF9F21"/>
<path d="M10.5 12.4937C9.1193 12.4937 8 13.6129 8 14.9937V19.9937H13V14.9937C13 13.6129 11.8807 12.4937 10.5 12.4937Z" fill="#FF9F21"/>
</g>
<defs>
<clipPath id="clip0_2108_892">
<rect width="20" height="20" fill="white" transform="translate(0.5)"/>
</clipPath>
</defs>
</svg>
