<svg width="54" height="54" viewBox="0 0 54 54" fill="none" xmlns="http://www.w3.org/2000/svg">
<rect width="54" height="54" rx="27" fill="#FF9F21"/>
<g clip-path="url(#clip0_2123_3874)">
<path d="M34.2875 17.7275C33.395 14.2987 30.4737 12 27 12C23.5262 12 20.6062 14.2975 19.7125 17.725C15.3038 18.3837 12 22.2075 12 26.6875C12 31.685 16.065 35.75 21.0625 35.75H25.125V40.125C25.125 41.16 25.9637 42 27 42C28.0362 42 28.875 41.16 28.875 40.125V35.75H32.9375C37.935 35.75 42 31.685 42 26.6875C42 22.2413 38.7475 18.4437 34.2875 17.7275ZM32.9375 32H28.875V31.6012L33.235 27.7862C34.015 27.1037 34.0938 25.92 33.4112 25.1412C32.73 24.36 31.5438 24.2812 30.765 24.9638L28.875 26.6175V23.875C28.875 22.84 28.0362 22 27 22C25.9637 22 25.125 22.84 25.125 23.875V26.6175L23.235 24.9638C22.455 24.2812 21.27 24.3625 20.5887 25.1412C19.9075 25.92 19.9862 27.1037 20.765 27.7862L25.125 31.6012V32H21.0625C18.1337 32 15.75 29.6175 15.75 26.6875C15.75 24.0275 17.735 21.7638 20.395 21.4163C22.4213 21.1625 23.105 19.61 23.3325 18.7075C23.785 16.91 25.225 15.75 27 15.75C28.775 15.75 30.215 16.9113 30.6675 18.7075C30.895 19.61 31.5787 21.1625 33.6337 21.42C36.265 21.7625 38.25 24.0275 38.25 26.6875C38.25 29.6175 35.8662 32 32.9375 32Z" fill="white"/>
</g>
<defs>
<clipPath id="clip0_2123_3874">
<rect width="30" height="30" fill="white" transform="translate(12 12)"/>
</clipPath>
</defs>
</svg>
