<svg width="54" height="54" viewBox="0 0 54 54" fill="none" xmlns="http://www.w3.org/2000/svg">
<rect width="54" height="54" rx="27" fill="#FF9F21"/>
<g clip-path="url(#clip0_2123_3889)">
<path d="M36.9667 33.0001L37.0917 33.1251C37.3754 33.4113 37.727 33.6211 38.1136 33.7349C38.5002 33.8488 38.9093 33.863 39.3029 33.7763C39.6901 33.6951 40.0507 33.5177 40.3514 33.2606C40.6522 33.0035 40.8835 32.675 41.0241 32.3051C41.7142 30.493 42.0441 28.5636 41.9953 26.6252C41.8546 22.8177 40.2886 19.2021 37.6077 16.4949C34.9267 13.7878 31.3266 12.1867 27.5207 12.0091C25.5083 11.9391 23.5024 12.275 21.6225 12.9969C19.7427 13.7188 18.0274 14.8118 16.5791 16.2107C15.1307 17.6097 13.9788 19.286 13.1921 21.1397C12.4054 22.9933 12 24.9864 12 27.0002C12.0046 30.9769 13.5864 34.7895 16.3984 37.6015C19.2103 40.4135 23.0228 41.9954 26.9995 42C27.422 42 27.837 41.9725 28.2495 41.9375C28.5625 41.9111 28.854 41.7679 29.0662 41.5362C29.2784 41.3046 29.3955 41.0016 29.3944 40.6875L29.3544 36.2026C29.3443 35.3163 29.5986 34.4471 30.0847 33.706C30.5709 32.9649 31.2669 32.3855 32.0838 32.0418C32.9008 31.6981 33.8017 31.6057 34.6714 31.7764C35.5411 31.9471 36.3402 32.3731 36.9667 33.0001ZM33.2893 22.0627C33.6477 21.9676 34.0263 21.9809 34.3771 22.1009C34.7279 22.221 35.0353 22.4423 35.2603 22.7371C35.4854 23.0318 35.618 23.3866 35.6414 23.7567C35.6648 24.1267 35.5779 24.4954 35.3918 24.8161C35.2057 25.1369 34.9286 25.3952 34.5957 25.5584C34.2628 25.7217 33.8889 25.7826 33.5214 25.7334C33.1539 25.6842 32.8092 25.5271 32.5309 25.282C32.2527 25.0369 32.0533 24.7148 31.9581 24.3564C31.8949 24.1184 31.8791 23.8703 31.9118 23.6262C31.9445 23.3821 32.0249 23.1468 32.1486 22.9338C32.2722 22.7208 32.4366 22.5342 32.6323 22.3848C32.828 22.2353 33.0513 22.1259 33.2893 22.0627ZM21.7522 33.1876C21.3938 33.2827 21.0152 33.2694 20.6644 33.1494C20.3136 33.0293 20.0062 32.808 19.7812 32.5132C19.5561 32.2185 19.4235 31.8637 19.4001 31.4936C19.3767 31.1236 19.4636 30.7549 19.6497 30.4342C19.8358 30.1134 20.1129 29.8551 20.4458 29.6919C20.7787 29.5286 21.1526 29.4677 21.5201 29.5169C21.8876 29.5661 22.2323 29.7232 22.5106 29.9683C22.7888 30.2134 22.9882 30.5355 23.0834 30.8939C23.1466 31.1319 23.1624 31.38 23.1297 31.6241C23.097 31.8682 23.0166 32.1035 22.8929 32.3165C22.7693 32.5295 22.6049 32.7161 22.4092 32.8655C22.2135 33.015 21.9902 33.1244 21.7522 33.1876ZM21.7522 25.6877C21.3938 25.7828 21.0152 25.7695 20.6644 25.6494C20.3136 25.5294 20.0062 25.308 19.7812 25.0133C19.5561 24.7186 19.4235 24.3638 19.4001 23.9937C19.3767 23.6236 19.4636 23.2549 19.6497 22.9342C19.8358 22.6135 20.1129 22.3552 20.4458 22.1919C20.7787 22.0287 21.1526 21.9678 21.5201 22.017C21.8876 22.0662 22.2323 22.2233 22.5106 22.4684C22.7888 22.7135 22.9882 23.0356 23.0834 23.3939C23.1466 23.632 23.1624 23.8801 23.1297 24.1242C23.097 24.3683 23.0166 24.6036 22.8929 24.8166C22.7693 25.0296 22.6049 25.2161 22.4092 25.3656C22.2135 25.5151 21.9902 25.6245 21.7522 25.6877ZM28.002 21.9377C27.6436 22.0328 27.265 22.0195 26.9142 21.8995C26.5634 21.7794 26.256 21.5581 26.0309 21.2634C25.8059 20.9686 25.6733 20.6138 25.6499 20.2437C25.6265 19.8737 25.7134 19.505 25.8995 19.1843C26.0856 18.8636 26.3627 18.6052 26.6956 18.442C27.0285 18.2787 27.4024 18.2178 27.7699 18.267C28.1374 18.3162 28.4821 18.4733 28.7604 18.7184C29.0386 18.9635 29.238 19.2856 29.3332 19.644C29.3964 19.882 29.4122 20.1301 29.3795 20.3742C29.3468 20.6183 29.2663 20.8536 29.1427 21.0666C29.0191 21.2796 28.8547 21.4662 28.659 21.6156C28.4633 21.7651 28.24 21.8745 28.002 21.9377Z" fill="white"/>
</g>
<defs>
<clipPath id="clip0_2123_3889">
<rect width="30" height="30" fill="white" transform="translate(12 12)"/>
</clipPath>
</defs>
</svg>
