<svg width="54" height="54" viewBox="0 0 54 54" fill="none" xmlns="http://www.w3.org/2000/svg">
<rect x="1" y="1" width="52" height="52" rx="26" stroke="#FF9F21" stroke-width="2"/>
<g clip-path="url(#clip0_2123_3809)">
<path d="M42 28.2506V35.7506C42 39.2019 39.2012 42.0006 35.75 42.0006H19.5C16.0487 42.0006 13.25 39.2019 13.25 35.7506V25.7506H14.6787L20.9437 16.0006L24.7925 14.9569L18.2137 25.2418L16.3737 25.7231L16.32 25.7506H39.5C40.8812 25.7506 42 26.8693 42 28.2506ZM33.225 21.3206L38.5575 12.7668C37.8187 12.2043 36.88 11.9206 35.8862 12.0193L29.3075 22.3431L33.225 21.3206ZM39.0087 19.8094C40.09 19.5269 40.7512 18.4369 40.5025 17.3469L40.005 15.1706L36.745 20.4006L39.0087 19.8094ZM25.75 23.2731L32.3575 12.9068L28.3837 13.9843L21.7775 24.3106L25.75 23.2731ZM14.9425 17.6269C12.9237 18.0719 11.6425 20.0756 12.0887 22.1044L12.61 24.3869L17.3512 16.9743L14.9425 17.6269Z" fill="#FF9F21"/>
</g>
<defs>
<clipPath id="clip0_2123_3809">
<rect width="30" height="30" fill="white" transform="translate(12 12)"/>
</clipPath>
</defs>
</svg>
