<svg width="54" height="54" viewBox="0 0 54 54" fill="none" xmlns="http://www.w3.org/2000/svg">
<rect x="1" y="1" width="52" height="52" rx="26" stroke="#FF9F21" stroke-width="2"/>
<g clip-path="url(#clip0_2123_3811)">
<path d="M36.7612 19.214C36.2349 17.869 34.9712 17.0003 33.5449 17.0003H15.4562C14.0287 17.0003 12.7662 17.869 12.2399 19.214C11.7274 20.5203 12.0399 21.9153 13.0849 22.8815L21.4199 30.5815C21.9624 31.0753 22.5899 31.4153 23.2512 31.604V39.5003H19.5012C18.8099 39.5003 18.2512 40.0603 18.2512 40.7503C18.2512 41.4403 18.8099 42.0003 19.5012 42.0003H29.5012C30.1924 42.0003 30.7512 41.4403 30.7512 40.7503C30.7512 40.0603 30.1924 39.5003 29.5012 39.5003H25.7512V31.6028C26.4137 31.4128 27.0437 31.0715 27.5899 30.574L35.9499 22.8515C36.9637 21.914 37.2749 20.5203 36.7612 19.214ZM41.9999 19.5003C41.9999 23.409 38.9949 26.6278 35.1749 26.969L37.6449 24.6865C39.4049 23.0603 39.9712 20.554 39.0887 18.3028C38.1849 15.9915 36.0087 14.499 33.5437 14.499H28.8987C30.2837 12.9465 32.2937 11.999 34.4999 11.999C38.6362 11.999 41.9999 15.364 41.9999 19.5003Z" fill="#FF9F21"/>
</g>
<defs>
<clipPath id="clip0_2123_3811">
<rect width="30" height="30" fill="white" transform="translate(12 12)"/>
</clipPath>
</defs>
</svg>
