<svg width="54" height="54" viewBox="0 0 54 54" fill="none" xmlns="http://www.w3.org/2000/svg">
<rect width="54" height="54" rx="27" fill="#FF9F21"/>
<g clip-path="url(#clip0_2123_3877)">
<path d="M27.0712 29.5799L15.1962 41.4549C14.8438 41.806 14.3663 42.0027 13.8689 42.0018C13.3715 42.0008 12.8948 41.8023 12.5437 41.4499C12.1926 41.0975 11.9959 40.6201 11.9968 40.1226C11.9978 39.6252 12.1963 39.1485 12.5487 38.7974L24.4237 26.9287C23.4668 25.3731 23.0614 23.5408 23.2728 21.7267C23.4841 19.9127 24.2999 18.2226 25.5887 16.9287L30.0624 12.5374C30.4191 12.1976 30.8952 12.0118 31.3878 12.0202C31.8803 12.0286 32.3498 12.2305 32.6947 12.5823C33.0396 12.9341 33.2322 13.4075 33.2308 13.9001C33.2294 14.3927 33.0343 14.8651 32.6874 15.2149L28.2237 19.5899C27.6453 20.1747 27.2444 20.9114 27.0674 21.7147C26.8904 22.518 26.9446 23.3549 27.2237 24.1287L35.0487 16.2999C35.2228 16.1258 35.4295 15.9876 35.6569 15.8933C35.8844 15.799 36.1282 15.7505 36.3745 15.7504C36.6207 15.7503 36.8646 15.7988 37.0921 15.893C37.3196 15.9872 37.5264 16.1252 37.7006 16.2993C37.8747 16.4734 38.0129 16.6801 38.1072 16.9076C38.2015 17.135 38.25 17.3789 38.2501 17.6251C38.2502 17.8714 38.2017 18.1152 38.1075 18.3427C38.0133 18.5703 37.8753 18.777 37.7012 18.9512L29.8749 26.7787C30.6521 27.0559 31.4917 27.1077 32.2971 26.9281C33.1024 26.7485 33.8405 26.3448 34.4262 25.7637L38.7887 21.3137C38.9601 21.1338 39.1655 20.9897 39.3931 20.8899C39.6207 20.7901 39.8658 20.7366 40.1142 20.7323C40.3627 20.7281 40.6095 20.7733 40.8403 20.8653C41.0711 20.9573 41.2814 21.0942 41.4588 21.2682C41.6362 21.4421 41.7773 21.6496 41.8739 21.8786C41.9704 22.1075 42.0205 22.3534 42.0212 22.6019C42.0219 22.8504 41.9731 23.0965 41.8779 23.326C41.7826 23.5555 41.6427 23.7638 41.4662 23.9387L37.0912 28.4024C35.7984 29.6988 34.1057 30.5205 32.2875 30.7345C30.4693 30.9484 28.632 30.542 27.0737 29.5812L27.0712 29.5799ZM37.1612 33.8899C36.9851 33.6888 36.7682 33.5277 36.5248 33.4173C36.2814 33.3069 36.0172 33.2499 35.7499 33.2499C33.7322 33.3315 31.712 33.1678 29.7337 32.7624L29.2337 32.6599C28.7457 32.5641 28.2396 32.6661 27.8268 32.9434C27.414 33.2207 27.1282 33.6507 27.0324 34.1387C26.9366 34.6267 27.0386 35.1328 27.3159 35.5456C27.5932 35.9584 28.0232 36.2441 28.5112 36.3399L28.9687 36.4324C30.9155 36.8442 32.9029 37.033 34.8924 36.9949L38.7112 41.3587C39.0401 41.7276 39.5013 41.9517 39.9945 41.9823C40.4878 42.0129 40.9732 41.8476 41.3451 41.5222C41.7171 41.1969 41.9456 40.7378 41.9809 40.2449C42.0162 39.7519 41.8555 39.265 41.5337 38.8899L37.1612 33.8899ZM16.7249 27.8237C17.0309 28.2159 17.4802 28.4704 17.9739 28.5314C18.4676 28.5923 18.9652 28.4547 19.3574 28.1487C19.7496 27.8427 20.0042 27.3934 20.0651 26.8997C20.1261 26.4061 19.9884 25.9084 19.6824 25.5162C17.6381 22.8786 16.3013 19.7627 15.7987 16.4637L19.1887 20.1449C19.5284 20.4984 19.993 20.7048 20.4831 20.7199C20.9731 20.735 21.4496 20.5575 21.8103 20.2255C22.1711 19.8935 22.3875 19.4334 22.4131 18.9438C22.4387 18.4542 22.2716 17.974 21.9474 17.6062L17.7774 13.0762C17.3122 12.5771 16.7069 12.2302 16.0411 12.081C15.3753 11.9318 14.68 11.9872 14.0462 12.2399C13.4316 12.4818 12.906 12.9063 12.5401 13.4561C12.1743 14.0059 11.9857 14.6547 11.9999 15.3149V15.7499C12.3405 20.1545 13.9855 24.3579 16.7249 27.8237Z" fill="white"/>
</g>
<defs>
<clipPath id="clip0_2123_3877">
<rect width="30" height="30" fill="white" transform="translate(12 12)"/>
</clipPath>
</defs>
</svg>
