<svg width="54" height="54" viewBox="0 0 54 54" fill="none" xmlns="http://www.w3.org/2000/svg">
<rect width="54" height="54" rx="27" fill="#FF9F21"/>
<g clip-path="url(#clip0_2123_3871)">
<path d="M27 42C26.3063 42 25.6138 41.9037 24.94 41.7112L16.5325 39.31C13.8638 38.5475 12 36.0762 12 33.3V17C12 16.31 12.56 15.75 13.25 15.75C13.94 15.75 14.5 16.31 14.5 17V33.3C14.5 34.9662 15.6188 36.4487 17.22 36.9062L25.6275 39.3075C26.5263 39.5637 27.475 39.5637 28.375 39.3075L36.7813 36.9062C38.3825 36.4487 39.5013 34.9662 39.5013 33.3V15.75C39.5013 15.06 40.0613 14.5 40.7513 14.5C41.4413 14.5 42.0013 15.06 42.0013 15.75V33.3C42.0013 36.075 40.1375 38.5462 37.4688 39.31L29.0613 41.7112C28.3863 41.9037 27.6938 42 27.0013 42H27ZM34.5288 12.1937C33.6188 11.8575 32.605 11.9412 31.7038 12.3012L30.6075 12.7387C29.1838 13.3075 28.2488 14.6875 28.2488 16.2212V34.3412C27.8388 34.4462 27.42 34.5 26.9988 34.5C26.5775 34.5 26.1588 34.4462 25.7488 34.3412V16.2212C25.7488 14.6875 24.815 13.3075 23.39 12.7387L22.2925 12.3C21.3913 11.94 20.3775 11.8562 19.4675 12.1937C17.9488 12.7562 16.9975 14.1725 16.9975 15.7212V31.6137C16.9975 33.2875 18.1075 34.7587 19.7163 35.2187L24.9363 36.7112C25.6088 36.9025 26.3025 36.9987 26.9963 36.9987C27.69 36.9987 28.3838 36.9025 29.0563 36.7112L34.2763 35.2187C35.8863 34.7587 36.995 33.2875 36.995 31.6137V15.7212C36.995 14.1725 36.0425 12.755 34.5238 12.1937H34.5288Z" fill="white"/>
</g>
<defs>
<clipPath id="clip0_2123_3871">
<rect width="30" height="30" fill="white" transform="translate(12 12)"/>
</clipPath>
</defs>
</svg>
