<svg width="54" height="54" viewBox="0 0 54 54" fill="none" xmlns="http://www.w3.org/2000/svg">
<rect width="54" height="54" rx="27" fill="#FF9F21"/>
<g clip-path="url(#clip0_2123_3895)">
<path d="M41.75 22.1948L37.4837 35.1948C37.2147 36.0989 36.7422 36.9294 36.1026 37.6227C35.463 38.316 34.6733 38.8538 33.7937 39.1948C34.2609 38.1064 34.5012 36.9342 34.5 35.7498V23.2498C34.4974 20.9299 33.5746 18.7059 31.9343 17.0655C30.2939 15.4251 28.0698 14.5024 25.75 14.4998H23.6687C24.4406 13.4787 25.5065 12.7183 26.7232 12.3208C27.9399 11.9233 29.2492 11.9076 30.475 12.276L37.5825 14.4585C39.1515 14.946 40.4668 16.0292 41.246 17.4756C42.0252 18.9221 42.2062 20.6164 41.75 22.1948ZM32 23.2498V35.7498C31.998 37.4068 31.3389 38.9953 30.1672 40.167C28.9956 41.3387 27.407 41.9978 25.75 41.9998H18.25C16.593 41.9978 15.0044 41.3387 13.8328 40.167C12.6611 38.9953 12.002 37.4068 12 35.7498V23.2498C12.002 21.5928 12.6611 20.0042 13.8328 18.8326C15.0044 17.6609 16.593 17.0018 18.25 16.9998H25.75C27.407 17.0018 28.9956 17.6609 30.1672 18.8326C31.3389 20.0042 31.998 21.5928 32 23.2498ZM27 28.2498C27 27.5867 26.7366 26.9509 26.2678 26.482C25.7989 26.0132 25.163 25.7498 24.5 25.7498C23.837 25.7498 23.2011 26.0132 22.7322 26.482C22.2634 26.9509 22 27.5867 22 28.2498C22 27.5867 21.7366 26.9509 21.2678 26.482C20.7989 26.0132 20.163 25.7498 19.5 25.7498C18.837 25.7498 18.2011 26.0132 17.7322 26.482C17.2634 26.9509 17 27.5867 17 28.2498C17 30.0623 18.93 32.4885 20.3925 33.7223C20.8418 34.1025 21.4114 34.3111 22 34.3111C22.5886 34.3111 23.1582 34.1025 23.6075 33.7223C25.07 32.4885 27 30.0623 27 28.2498Z" fill="white"/>
</g>
<defs>
<clipPath id="clip0_2123_3895">
<rect width="30" height="30" fill="white" transform="translate(12 12)"/>
</clipPath>
</defs>
</svg>
