<svg width="54" height="54" viewBox="0 0 54 54" fill="none" xmlns="http://www.w3.org/2000/svg">
<rect width="54" height="54" rx="27" fill="#FF9F21"/>
<g clip-path="url(#clip0_2123_3883)">
<path d="M42.0003 38.5525V42H39.5003V38.5525C39.5 37.7509 39.262 36.9674 38.8165 36.301C38.371 35.6346 37.7379 35.1153 36.9972 34.8087C36.2566 34.502 35.4417 34.4219 34.6555 34.5783C33.8693 34.7347 33.1472 35.1207 32.5803 35.6875L28.8303 39.4375C28.0199 40.2526 27.0558 40.8988 25.9939 41.3386C24.932 41.7785 23.7934 42.0033 22.6441 42H15.9028C15.1311 42.0003 14.3766 41.7717 13.7348 41.3431C13.093 40.9146 12.5927 40.3053 12.2972 39.5923C12.0018 38.8794 11.9244 38.0948 12.0749 37.3379C12.2254 36.581 12.5971 35.8857 13.1428 35.34L13.5253 34.9575C13.2619 34.3412 13.1887 33.6602 13.3153 33.002C13.4418 32.3438 13.7622 31.7385 14.2353 31.2638L21.7353 23.7638C22.087 24.5387 22.5415 25.2627 23.0866 25.9163C24.0125 27.0226 25.1668 27.9156 26.4703 28.5338L18.9866 36.015C18.5127 36.4904 17.907 36.8125 17.248 36.9395C16.5889 37.0665 15.9069 36.9927 15.2903 36.7275L14.9153 37.1025C14.7177 37.298 14.5826 37.5478 14.5274 37.8203C14.4721 38.0927 14.4992 38.3754 14.605 38.6324C14.7109 38.8894 14.8908 39.1092 15.1219 39.2637C15.353 39.4182 15.6248 39.5004 15.9028 39.5H22.6441C23.4651 39.5021 24.2784 39.3413 25.0369 39.027C25.7953 38.7126 26.4839 38.251 27.0628 37.6688L30.8128 33.9188C31.7294 33.0024 32.897 32.3783 34.1682 32.1255C35.4394 31.8727 36.757 32.0025 37.9544 32.4985C39.1519 32.9944 40.1754 33.8343 40.8955 34.9119C41.6157 35.9895 42.0001 37.2564 42.0003 38.5525ZM30.7503 27C32.2337 27 33.6837 26.5601 34.9171 25.736C36.1504 24.9119 37.1117 23.7406 37.6794 22.3701C38.2471 20.9997 38.3956 19.4917 38.1062 18.0368C37.8168 16.582 37.1025 15.2456 36.0536 14.1967C35.0047 13.1478 33.6683 12.4335 32.2135 12.1441C30.7586 11.8547 29.2506 12.0032 27.8802 12.5709C26.5097 13.1386 25.3384 14.0999 24.5143 15.3332C23.6902 16.5666 23.2503 18.0166 23.2503 19.5C23.2503 21.4891 24.0405 23.3968 25.447 24.8033C26.8535 26.2098 28.7612 27 30.7503 27Z" fill="white"/>
</g>
<defs>
<clipPath id="clip0_2123_3883">
<rect width="30" height="30" fill="white" transform="translate(12 12)"/>
</clipPath>
</defs>
</svg>
