<svg width="54" height="54" viewBox="0 0 54 54" fill="none" xmlns="http://www.w3.org/2000/svg">
<rect x="1" y="1" width="52" height="51.9976" rx="25.9988" stroke="#FF9F21" stroke-width="2"/>
<path d="M19.7143 18.4856C19.5743 19.0106 19.4993 19.5593 19.4993 20.1242C19.4993 23.9214 22.8565 26.9987 26.9987 26.9987C31.1409 26.9987 34.4982 23.9214 34.4982 20.1242C34.4982 19.548 34.4207 18.9893 34.2744 18.4544C34.4557 18.3669 34.6457 18.2131 34.8532 17.9781C36.1656 16.4845 36.0193 14.2097 34.5257 12.896C33.032 11.5836 30.7572 11.7299 29.4436 13.2235C29.3423 13.3385 29.2598 13.4472 29.1936 13.5497C28.4986 13.3547 27.7624 13.2497 26.9987 13.2497C26.2288 13.2497 25.4864 13.356 24.7877 13.5535C24.7039 13.3997 24.5764 13.2335 24.3964 13.0548C22.9903 11.6486 20.7105 11.6486 19.3043 13.0548C17.8982 14.4609 17.8982 16.7407 19.3043 18.1469C19.4505 18.2931 19.5855 18.4044 19.7143 18.4856ZM25.1239 22.3116C25.1239 21.1029 25.9638 20.1242 26.9987 20.1242C28.0337 20.1242 28.8736 21.1029 28.8736 22.3116H25.1239ZM19.963 36.1055C19.963 36.1055 21.9266 38.7241 21.9266 41.9976H19.9743C17.5019 41.9976 15.1734 40.8327 13.6897 38.8553L12.721 37.5642C11.6936 36.1943 11.7436 34.2069 13.0035 33.0495C14.4534 31.7171 16.6945 31.9521 17.8469 33.4882L19.963 36.1055ZM41.2777 37.5617L40.3078 38.8553C38.8241 40.8339 36.4955 41.9976 34.0232 41.9976H32.0446C32.0446 37.4142 33.9582 35.8768 33.9582 35.8768L36.1518 33.487C37.3042 31.9509 39.5466 31.7171 40.9964 33.0495C42.2564 34.2069 42.3051 36.193 41.2789 37.5604L41.2777 37.5617ZM29.5435 41.9976H24.4277C24.4277 38.0054 22.2153 34.9406 21.9079 34.5344L19.848 31.9858C18.8706 30.6834 17.3795 29.851 15.7583 29.701C15.5721 29.6835 15.3871 29.6773 15.2021 29.6785L12.6573 25.9875C11.5724 24.5414 11.8661 22.4891 13.3123 21.4041C14.4484 20.5517 15.9583 20.5504 17.0795 21.2904C17.6932 25.9113 21.9091 29.4985 27.0012 29.4985C32.0934 29.4985 36.3093 25.9113 36.923 21.2904C38.0442 20.5504 39.5541 20.5529 40.6902 21.4041C42.1364 22.4891 42.4301 24.5414 41.3452 25.9875L38.8004 29.6785C38.6154 29.6785 38.4291 29.686 38.2442 29.7035C36.6693 29.8473 35.2169 30.6372 34.2395 31.8746L32.2009 34.0969C31.4722 34.7769 29.546 37.0405 29.546 41.9976H29.5435Z" fill="#FF9F21"/>
</svg>
