<svg width="54" height="54" viewBox="0 0 54 54" fill="none" xmlns="http://www.w3.org/2000/svg">
<rect y="-0.00292969" width="54" height="53.9976" rx="26.9988" fill="#FF9F21"/>
<path d="M19.7143 18.4827C19.5743 19.0076 19.4993 19.5563 19.4993 20.1213C19.4993 23.9185 22.8565 26.9958 26.9987 26.9958C31.1409 26.9958 34.4982 23.9185 34.4982 20.1213C34.4982 19.5451 34.4207 18.9864 34.2744 18.4514C34.4557 18.3639 34.6457 18.2102 34.8532 17.9752C36.1656 16.4816 36.0193 14.2067 34.5257 12.8931C33.032 11.5807 30.7572 11.7269 29.4436 13.2206C29.3423 13.3356 29.2598 13.4443 29.1936 13.5468C28.4986 13.3518 27.7624 13.2468 26.9987 13.2468C26.2288 13.2468 25.4864 13.3531 24.7877 13.5505C24.7039 13.3968 24.5764 13.2306 24.3964 13.0518C22.9903 11.6457 20.7105 11.6457 19.3043 13.0518C17.8982 14.458 17.8982 16.7378 19.3043 18.1439C19.4505 18.2902 19.5855 18.4014 19.7143 18.4827ZM25.1239 22.3086C25.1239 21.1 25.9638 20.1213 26.9987 20.1213C28.0337 20.1213 28.8736 21.1 28.8736 22.3086H25.1239ZM19.963 36.1026C19.963 36.1026 21.9266 38.7212 21.9266 41.9947H19.9743C17.5019 41.9947 15.1734 40.8298 13.6897 38.8524L12.721 37.5613C11.6936 36.1914 11.7436 34.204 13.0035 33.0466C14.4534 31.7142 16.6945 31.9492 17.8469 33.4853L19.963 36.1026ZM41.2777 37.5588L40.3078 38.8524C38.8241 40.831 36.4955 41.9947 34.0232 41.9947H32.0446C32.0446 37.4113 33.9582 35.8739 33.9582 35.8739L36.1518 33.4841C37.3042 31.9479 39.5466 31.7142 40.9964 33.0466C42.2564 34.204 42.3051 36.1901 41.2789 37.5575L41.2777 37.5588ZM29.5435 41.9947H24.4277C24.4277 38.0025 22.2153 34.9377 21.9079 34.5315L19.848 31.9829C18.8706 30.6805 17.3795 29.8481 15.7583 29.6981C15.5721 29.6806 15.3871 29.6743 15.2021 29.6756L12.6573 25.9846C11.5724 24.5385 11.8661 22.4861 13.3123 21.4012C14.4484 20.5488 15.9583 20.5475 17.0795 21.2875C17.6932 25.9084 21.9091 29.4956 27.0012 29.4956C32.0934 29.4956 36.3093 25.9084 36.923 21.2875C38.0442 20.5475 39.5541 20.55 40.6902 21.4012C42.1364 22.4861 42.4301 24.5385 41.3452 25.9846L38.8004 29.6756C38.6154 29.6756 38.4291 29.6831 38.2442 29.7006C36.6693 29.8443 35.2169 30.6343 34.2395 31.8717L32.2009 34.094C31.4722 34.774 29.546 37.0375 29.546 41.9947H29.5435Z" fill="white"/>
</svg>
