<svg width="54" height="54" viewBox="0 0 54 54" fill="none" xmlns="http://www.w3.org/2000/svg">
<rect width="54" height="54" rx="27" fill="#FF9F21"/>
<g clip-path="url(#clip0_2123_3880)">
<path d="M40.75 27.625C40.75 28.1223 40.5525 28.5992 40.2008 28.9508C39.8492 29.3025 39.3723 29.5 38.875 29.5H35.2875C34.5326 29.4977 33.7909 29.301 33.1341 28.9288C32.4773 28.5566 31.9274 28.0215 31.5375 27.375L30.0062 24.8325L27.7687 30.2863L31.0363 32.145C31.7085 32.528 32.2675 33.0821 32.6563 33.7511C33.0451 34.4201 33.25 35.18 33.25 35.9538V40.125C33.25 40.6223 33.0525 41.0992 32.7008 41.4508C32.3492 41.8025 31.8723 42 31.375 42C30.8777 42 30.4008 41.8025 30.0492 41.4508C29.6975 41.0992 29.5 40.6223 29.5 40.125V35.9538C29.5 35.8436 29.4708 35.7354 29.4155 35.6401C29.3602 35.5449 29.2807 35.4659 29.185 35.4113L24.0825 32.5075C23.192 31.9656 22.5235 31.1243 22.1966 30.1344C21.8698 29.1445 21.906 28.0706 22.2988 27.105L23.875 23.25H21.67C21.5539 23.2501 21.4401 23.2826 21.3414 23.3437C21.2427 23.4049 21.163 23.4923 21.1112 23.5963L19.3025 27.2138C19.08 27.6587 18.69 27.997 18.2181 28.1543C17.7462 28.3116 17.2312 28.275 16.7863 28.0525C16.3413 27.8301 16.003 27.44 15.8457 26.9681C15.6884 26.4962 15.725 25.9812 15.9475 25.5363L17.7562 21.9188C18.1176 21.1903 18.6758 20.5777 19.3675 20.1502C20.0592 19.7227 20.8569 19.4975 21.67 19.5H28.7C29.4549 19.5023 30.1966 19.699 30.8534 20.0712C31.5102 20.4434 32.0601 20.9785 32.45 21.625L34.75 25.4475C34.8058 25.5401 34.8846 25.6167 34.9788 25.6697C35.073 25.7227 35.1794 25.7504 35.2875 25.75H38.875C39.3723 25.75 39.8492 25.9475 40.2008 26.2992C40.5525 26.6508 40.75 27.1277 40.75 27.625ZM22.0712 33.0625C21.8426 32.971 21.5981 32.9255 21.3519 32.9285C21.1056 32.9315 20.8624 32.983 20.636 33.0801C20.4097 33.1771 20.2047 33.3178 20.0327 33.4941C19.8607 33.6704 19.7252 33.8788 19.6337 34.1075C19.5873 34.2234 19.5073 34.3227 19.4039 34.3926C19.3005 34.4626 19.1786 34.5 19.0538 34.5H16.375C15.8777 34.5 15.4008 34.6975 15.0492 35.0492C14.6975 35.4008 14.5 35.8777 14.5 36.375C14.5 36.8723 14.6975 37.3492 15.0492 37.7008C15.4008 38.0525 15.8777 38.25 16.375 38.25H19.0538C19.9288 38.2528 20.7844 37.992 21.5091 37.5014C22.2337 37.0109 22.7938 36.3135 23.1162 35.5C23.2077 35.2713 23.2533 35.0269 23.2502 34.7806C23.2472 34.5344 23.1957 34.2911 23.0987 34.0648C23.0016 33.8384 22.861 33.6334 22.6847 33.4614C22.5084 33.2895 22.2999 33.1539 22.0712 33.0625ZM30.125 18.25C30.7431 18.25 31.3473 18.0667 31.8612 17.7233C32.3751 17.38 32.7756 16.8919 33.0121 16.3209C33.2486 15.7499 33.3105 15.1215 33.19 14.5153C33.0694 13.9092 32.7717 13.3523 32.3347 12.9153C31.8977 12.4783 31.3408 12.1806 30.7347 12.06C30.1285 11.9395 29.5001 12.0014 28.9291 12.2379C28.3581 12.4744 27.87 12.8749 27.5267 13.3888C27.1833 13.9027 27 14.5069 27 15.125C27 15.9538 27.3292 16.7487 27.9153 17.3347C28.5013 17.9208 29.2962 18.25 30.125 18.25Z" fill="white"/>
</g>
<defs>
<clipPath id="clip0_2123_3880">
<rect width="30" height="30" fill="white" transform="translate(12 12)"/>
</clipPath>
</defs>
</svg>
