<svg width="54" height="54" viewBox="0 0 54 54" fill="none" xmlns="http://www.w3.org/2000/svg">
<rect width="54" height="54" rx="27" fill="#FF9F21"/>
<g clip-path="url(#clip0_2123_3823)">
<path d="M27.1476 37.0397L15.9001 41.7747C15.5451 41.9235 15.1738 41.9972 14.8063 41.9972C14.0788 41.9972 13.3651 41.711 12.8263 41.1735C12.0163 40.3635 11.7801 39.1572 12.2251 38.101L16.9601 26.8522L27.1476 37.0397ZM32.2601 29.8397L24.1613 21.741C23.3651 20.9435 22.2276 20.5985 21.1238 20.8147C20.0188 21.0322 19.0976 21.7797 18.6601 22.8197L18.0088 24.3672L29.6363 35.9947L31.1838 35.3435C32.2226 34.906 32.9713 33.9847 33.1876 32.8797C33.4038 31.7735 33.0576 30.6372 32.2613 29.841L32.2601 29.8397ZM31.7451 21.506C32.6576 20.3035 33.1626 19.026 33.2476 17.7047C33.4626 14.3335 31.0038 12.3522 30.9001 12.2685C30.3626 11.846 29.5863 11.9347 29.1551 12.471C28.7251 13.006 28.8113 13.791 29.3426 14.2247C29.4051 14.276 30.8826 15.506 30.7526 17.5447C30.7001 18.366 30.3638 19.1897 29.7551 19.9935C29.3376 20.5435 29.4451 21.3272 29.9951 21.7447C30.2213 21.916 30.4863 21.9985 30.7501 21.9985C31.1276 21.9985 31.5013 21.8272 31.7463 21.5035L31.7451 21.506ZM41.4701 29.2722C42.0351 28.8747 42.1701 28.0947 41.7713 27.5297C41.3051 26.8685 40.0388 25.7497 38.2501 25.7497C37.2801 25.7497 36.3688 26.0497 35.6151 26.6185C35.0638 27.0335 34.9551 27.8185 35.3701 28.3685C35.7863 28.9185 36.5688 29.0297 37.1213 28.6122C37.4413 28.371 37.8213 28.2485 38.2501 28.2485C39.1613 28.2485 39.7001 28.9335 39.7376 28.9822C39.9813 29.3197 40.3626 29.4985 40.7513 29.4985C41.0001 29.4985 41.2513 29.4235 41.4701 29.2697V29.2722ZM38.2501 13.876C38.2501 14.911 39.0901 15.751 40.1251 15.751C41.1601 15.751 42.0001 14.911 42.0001 13.876C42.0001 12.841 41.1601 12.001 40.1251 12.001C39.0901 12.001 38.2501 12.841 38.2501 13.876ZM35.7501 20.126C35.7501 21.161 36.5901 22.001 37.6251 22.001C38.6601 22.001 39.5001 21.161 39.5001 20.126C39.5001 19.091 38.6601 18.251 37.6251 18.251C36.5901 18.251 35.7501 19.091 35.7501 20.126ZM22.0001 15.1247C22.0001 16.1597 22.8401 16.9997 23.8751 16.9997C24.9101 16.9997 25.7501 16.1597 25.7501 15.1247C25.7501 14.0897 24.9101 13.2497 23.8751 13.2497C22.8401 13.2497 22.0001 14.0897 22.0001 15.1247ZM37.0001 35.1247C37.0001 36.1597 37.8401 36.9997 38.8751 36.9997C39.9101 36.9997 40.7501 36.1597 40.7501 35.1247C40.7501 34.0897 39.9101 33.2497 38.8751 33.2497C37.8401 33.2497 37.0001 34.0897 37.0001 35.1247ZM13.2501 16.3747C13.2501 17.4097 14.0901 18.2497 15.1251 18.2497C16.1601 18.2497 17.0001 17.4097 17.0001 16.3747C17.0001 15.3397 16.1601 14.4997 15.1251 14.4997C14.0901 14.4997 13.2501 15.3397 13.2501 16.3747ZM30.7501 40.1247C30.7501 41.1597 31.5901 41.9997 32.6251 41.9997C33.6601 41.9997 34.5001 41.1597 34.5001 40.1247C34.5001 39.0897 33.6601 38.2497 32.6251 38.2497C31.5901 38.2497 30.7501 39.0897 30.7501 40.1247Z" fill="white"/>
</g>
<defs>
<clipPath id="clip0_2123_3823">
<rect width="30" height="30" fill="white" transform="translate(12 12)"/>
</clipPath>
</defs>
</svg>
