<svg width="28" height="24" viewBox="0 0 28 24" fill="none" xmlns="http://www.w3.org/2000/svg">
<path d="M19.9145 0C18.6334 0.019926 17.3803 0.377534 16.2817 1.03671C15.183 1.69589 14.2778 2.63329 13.6574 3.75426C13.0369 2.63329 12.1317 1.69589 11.0331 1.03671C9.93444 0.377534 8.68132 0.019926 7.40027 0C5.35811 0.0887265 3.43407 0.982085 2.04849 2.4849C0.662912 3.98772 -0.0715692 5.97784 0.00550751 8.02047C0.00550751 13.1934 5.45032 18.843 10.0169 22.6735C11.0365 23.5303 12.3256 24 13.6574 24C14.9892 24 16.2783 23.5303 17.2979 22.6735C21.8644 18.843 27.3092 13.1934 27.3092 8.02047C27.3863 5.97784 26.6518 3.98772 25.2662 2.4849C23.8807 0.982085 21.9566 0.0887265 19.9145 0Z" fill="#E84954"/>
</svg>
