<svg width="28" height="24" viewBox="0 0 28 24" fill="none" xmlns="http://www.w3.org/2000/svg">
<path d="M19.9145 0C18.6334 0.019926 17.3803 0.377534 16.2817 1.03671C15.183 1.69589 14.2778 2.63329 13.6574 3.75426C13.0369 2.63329 12.1317 1.69589 11.0331 1.03671C9.93444 0.377534 8.68132 0.019926 7.40027 0C5.35811 0.0887265 3.43407 0.982085 2.04849 2.4849C0.662912 3.98772 -0.0715692 5.97784 0.00550751 8.02047C0.00550751 13.1934 5.45032 18.843 10.0169 22.6735C11.0365 23.5303 12.3256 24 13.6574 24C14.9892 24 16.2783 23.5303 17.2979 22.6735C21.8644 18.843 27.3092 13.1934 27.3092 8.02047C27.3863 5.97784 26.6518 3.98772 25.2662 2.4849C23.8807 0.982085 21.9566 0.0887265 19.9145 0ZM15.836 20.9329C15.2262 21.4464 14.4546 21.728 13.6574 21.728C12.8602 21.728 12.0886 21.4464 11.4788 20.9329C5.63349 16.0284 2.28082 11.3231 2.28082 8.02047C2.20305 6.58101 2.69762 5.1692 3.65666 4.09294C4.6157 3.01669 5.9614 2.36331 7.40027 2.27531C8.83913 2.36331 10.1848 3.01669 11.1439 4.09294C12.1029 5.1692 12.5975 6.58101 12.5197 8.02047C12.5197 8.32219 12.6396 8.61156 12.8529 8.82491C13.0663 9.03826 13.3556 9.15812 13.6574 9.15812C13.9591 9.15812 14.2485 9.03826 14.4618 8.82491C14.6752 8.61156 14.795 8.32219 14.795 8.02047C14.7173 6.58101 15.2118 5.1692 16.1709 4.09294C17.1299 3.01669 18.4756 2.36331 19.9145 2.27531C21.3533 2.36331 22.699 3.01669 23.6581 4.09294C24.6171 5.1692 25.1117 6.58101 25.0339 8.02047C25.0339 11.3231 21.6812 16.0284 15.836 20.9283V20.9329Z" fill="#E84954"/>
</svg>
