<svg width="24" height="24" viewBox="0 0 24 24" fill="none" xmlns="http://www.w3.org/2000/svg">
<g clip-path="url(#clip0_2009_164)">
<path d="M8.00143 21H3.41045C3.18479 20.9994 3.00198 20.8167 3.00146 20.591V3.40898C3.00203 3.18333 3.18479 3.00052 3.41045 3H8.00143C8.82986 3 9.50143 2.32842 9.50143 1.5C9.50143 0.671578 8.82986 0 8.00143 0H3.41045C1.52861 0.00220313 0.00366797 1.52719 0.00146484 3.40898V20.591C0.00366797 22.4728 1.52861 23.9978 3.41045 24H8.00143C8.82986 24 9.50143 23.3284 9.50143 22.5C9.50143 21.6716 8.82986 21 8.00143 21Z" fill="black"/>
<path d="M22.6835 8.81788L18.8015 4.93888C18.2155 4.35318 17.2657 4.35341 16.6799 4.9394C16.0942 5.52538 16.0945 6.47521 16.6805 7.06091L20.0924 10.4719L6.50146 10.4999C5.67304 10.4999 5.00146 11.1715 5.00146 11.9999C5.00146 12.8283 5.67304 13.4999 6.50146 13.4999L20.1475 13.4749L16.6805 16.9419C16.116 17.5483 16.15 18.4974 16.7563 19.0619C17.3326 19.5984 18.2257 19.598 18.8015 19.0609L22.6805 15.1819C24.4379 13.4246 24.4379 10.5753 22.6805 8.81798L22.6805 8.81793L22.6835 8.81788Z" fill="black"/>
</g>
<defs>
<clipPath id="clip0_2009_164">
<rect width="24" height="24" fill="white"/>
</clipPath>
</defs>
</svg>
