<svg xmlns="http://www.w3.org/2000/svg" width="21" height="20" viewBox="0 0 21 20" fill="none">
  <g clip-path="url(#clip0_2108_485)">
    <path d="M7.16811 17.5H3.34229C3.15424 17.4995 3.00189 17.3472 3.00146 17.1592V2.84082C3.00193 2.65277 3.15424 2.50043 3.34229 2.5H7.16811C7.85846 2.5 8.41811 1.94035 8.41811 1.25C8.41811 0.559648 7.85846 0 7.16811 0H3.34229C1.77408 0.00183594 0.503301 1.27266 0.501465 2.84082V17.1591C0.503301 18.7273 1.77408 19.9982 3.34229 20H7.16811C7.85846 20 8.41811 19.4404 8.41811 18.75C8.41811 18.0596 7.85846 17.5 7.16811 17.5Z" fill="#FF9F21"/>
    <path d="M19.403 7.34844L16.168 4.11594C15.6796 3.62785 14.8881 3.62805 14.4 4.11637C13.912 4.60469 13.9121 5.39621 14.4005 5.8843L17.2438 8.7268L5.91797 8.75012C5.22762 8.75012 4.66797 9.30977 4.66797 10.0001C4.66797 10.6905 5.22762 11.2501 5.91797 11.2501L17.2896 11.2293L14.4005 14.1185C13.9301 14.6238 13.9584 15.4147 14.4637 15.8851C14.9439 16.3322 15.6881 16.3318 16.168 15.8843L19.4005 12.6518C20.865 11.1873 20.865 8.81297 19.4005 7.34852L19.4005 7.34848L19.403 7.34844Z" fill="#FF9F21"/>
  </g>
  <defs>
    <clipPath id="clip0_2108_485">
      <rect width="20" height="20" fill="white" transform="translate(0.5)"/>
    </clipPath>
  </defs>
</svg>